<svg id="Layer_1" data-name="Layer 1" xmlns="http://www.w3.org/2000/svg" viewBox="0 0 24 24"><title>iconoteka_bug_b_f</title><path d="M12,2A4,4,0,0,0,8,6h8A4,4,0,0,0,12,2ZM5,7V6A1,1,0,0,0,4,5H3V7a3,3,0,0,0,3,3v2H3a1,1,0,0,0-1,1v1H6v1a6.64,6.64,0,0,0,.09,1H6a3,3,0,0,0-3,3v2H4a1,1,0,0,0,1-1V19a1,1,0,0,1,1-1h.81A6,6,0,0,0,11,20.91V8H6A1,1,0,0,1,5,7Zm13,7h4V13a1,1,0,0,0-1-1H18V10a3,3,0,0,0,3-3V5H20a1,1,0,0,0-1,1V7a1,1,0,0,1-1,1H13V20.91A6,6,0,0,0,17.19,18H18a1,1,0,0,1,1,1v1a1,1,0,0,0,1,1h1V19a3,3,0,0,0-3-3h-.09A6.64,6.64,0,0,0,18,15Z"/></svg>