<svg id="Hot_2" data-name="Hot 2" xmlns="http://www.w3.org/2000/svg" viewBox="0 0 24 24"><title>iconoteka_toys__toy_shop_b_f</title><path d="M19.85,20.18a18.06,18.06,0,0,0,3.32-2.08l-1.24-1.57a16.69,16.69,0,0,1-2.74,1.75L18,14.88V9h1.88a2.12,2.12,0,0,0,.51-4.18L18,4.22V2H17a4,4,0,0,0-4,4V9H6a4,4,0,0,0-4,4v1H4V13a2,2,0,0,1,2-2v3.88l-1.19,3.4a16.69,16.69,0,0,1-2.74-1.75L.83,18.1a18.06,18.06,0,0,0,3.32,2.08v0l.16.05a17.81,17.81,0,0,0,15.4,0l.16-.05Zm-13.2-1.1L8.08,15h7.84l1.43,4.08a16,16,0,0,1-10.7,0Z"/></svg>