<svg id="Hot_2" data-name="Hot 2" xmlns="http://www.w3.org/2000/svg" viewBox="0 0 24 24"><title>iconoteka_taxi_front_b_f</title><path d="M22.4,11H20.74l-1-3.78A3,3,0,0,0,16.86,5H13.94l-.53-3H10.6l-.54,3H7.14A3,3,0,0,0,4.25,7.22L3.23,11H1.6a.6.6,0,0,0-.6.6v.48a.78.78,0,0,0,.57.75L3,13.22,3,18H3v3.34a.67.67,0,0,0,.66.66h.68A.67.67,0,0,0,5,21.34V20H19v1.34a.67.67,0,0,0,.66.66h.68a.67.67,0,0,0,.66-.66V13.21l1.43-.38a.78.78,0,0,0,.57-.75V11.6A.6.6,0,0,0,22.4,11ZM7,17.25A1.25,1.25,0,1,1,8.25,16,1.25,1.25,0,0,1,7,17.25Zm10,0A1.25,1.25,0,1,1,18.25,16,1.25,1.25,0,0,1,17,17.25ZM5,12,6.18,7.74a1,1,0,0,1,1-.74h9.72a1,1,0,0,1,1,.74L19,12Z"/></svg>