<svg id="Hot_2" data-name="Hot 2" xmlns="http://www.w3.org/2000/svg" viewBox="0 0 24 24"><title>iconoteka_car_wash_b_s</title><path d="M21.47,13H20l-.91-3.52A2,2,0,0,0,17.14,8H6.86A2,2,0,0,0,4.93,9.48L4,12.82V13H2.53a.53.53,0,0,0-.53.53V14a.69.69,0,0,0,.51.66L4,15v4H4v3.34a.67.67,0,0,0,.66.66h.68A.67.67,0,0,0,6,22.34V21H18v1.34a.67.67,0,0,0,.66.66h.68a.67.67,0,0,0,.66-.66V15l1.49-.4A.69.69,0,0,0,22,14v-.44A.53.53,0,0,0,21.47,13ZM6.86,10H17.14l.8,3H6.06ZM18,19H6V15H18ZM8,17.85A.85.85,0,1,0,7.15,17,.85.85,0,0,0,8,17.85Zm8,0a.85.85,0,1,0-.85-.85A.85.85,0,0,0,16,17.85ZM12,6a1.36,1.36,0,0,0,1.36-1.36A9.3,9.3,0,0,0,12,1.4a9.3,9.3,0,0,0-1.36,3.24A1.36,1.36,0,0,0,12,6ZM6,6A1.36,1.36,0,0,0,7.36,4.64,9.3,9.3,0,0,0,6,1.4,9.3,9.3,0,0,0,4.64,4.64,1.36,1.36,0,0,0,6,6ZM18,6a1.36,1.36,0,0,0,1.36-1.36A9.3,9.3,0,0,0,18,1.4a9.3,9.3,0,0,0-1.36,3.24A1.36,1.36,0,0,0,18,6Z"/></svg>