<svg id="Hot_2" data-name="Hot 2" xmlns="http://www.w3.org/2000/svg" viewBox="0 0 24 24"><title>iconoteka_drive_eta_b_s</title><path d="M18.47,13H17l-.91-3.52A2,2,0,0,0,14.14,8H4.86A2,2,0,0,0,2.93,9.48L2,12.82V13H.53a.53.53,0,0,0-.53.53V14a.69.69,0,0,0,.51.66L2,15v4H2v3.34a.67.67,0,0,0,.66.66h.68A.67.67,0,0,0,4,22.34V21H15v1.34a.67.67,0,0,0,.66.66h.68a.67.67,0,0,0,.66-.66V15l1.49-.4A.69.69,0,0,0,19,14v-.44A.53.53,0,0,0,18.47,13ZM4.86,10h9.28l.8,3H4.06ZM15,19H4V15H15ZM20,1a4,4,0,1,0,4,4A4,4,0,0,0,20,1Zm0,6.5a2.5,2.5,0,0,1,0-5V5h2.5A2.5,2.5,0,0,1,20,7.5ZM6,17.85A.85.85,0,1,0,5.15,17,.85.85,0,0,0,6,17.85Zm7,0a.85.85,0,1,0-.85-.85A.85.85,0,0,0,13,17.85Z"/></svg>