<svg id="Hot_2" data-name="Hot 2" xmlns="http://www.w3.org/2000/svg" viewBox="0 0 24 24"><title>iconoteka_airport_shuttle_b_s</title><path d="M11,6H3A3,3,0,0,0,0,9V22.34A.67.67,0,0,0,.66,23h.68A.67.67,0,0,0,2,22.34V21H12v1.34a.67.67,0,0,0,.66.66h.68a.67.67,0,0,0,.66-.66V9A3,3,0,0,0,11,6Zm1,13H2V15H12Zm0-6H2V9A1,1,0,0,1,3,8h8a1,1,0,0,1,1,1ZM4,17.85A.85.85,0,1,0,3.15,17,.85.85,0,0,0,4,17.85Zm6,0A.85.85,0,1,0,9.15,17,.85.85,0,0,0,10,17.85ZM22.63,4H20.48L18.92,1H17.53l.59,3H16.67L16,3H15V7h1l.66-1h1.45l-.59,3h1.39l1.56-3h2.15a1,1,0,1,0,0-2Z"/></svg>