<svg id="Hot_2" data-name="Hot 2" xmlns="http://www.w3.org/2000/svg" viewBox="0 0 24 24"><title>iconoteka_car_wash_b_f</title><path d="M12,6a1.36,1.36,0,0,0,1.36-1.36A9.3,9.3,0,0,0,12,1.4a9.3,9.3,0,0,0-1.36,3.24A1.36,1.36,0,0,0,12,6ZM6,6A1.36,1.36,0,0,0,7.36,4.64,9.3,9.3,0,0,0,6,1.4,9.3,9.3,0,0,0,4.64,4.64,1.36,1.36,0,0,0,6,6ZM18,6a1.36,1.36,0,0,0,1.36-1.36A9.3,9.3,0,0,0,18,1.4a9.3,9.3,0,0,0-1.36,3.24A1.36,1.36,0,0,0,18,6Zm3.47,7H20l-.91-3.52A2,2,0,0,0,17.14,8H6.86A2,2,0,0,0,4.93,9.48L4,12.82V13H2.53a.53.53,0,0,0-.53.53V14a.69.69,0,0,0,.51.66L4,15v4H4v3.34a.67.67,0,0,0,.66.66h.68A.67.67,0,0,0,6,22.34V21H18v1.34a.67.67,0,0,0,.66.66h.68a.67.67,0,0,0,.66-.66V15l1.49-.4A.69.69,0,0,0,22,14v-.44A.53.53,0,0,0,21.47,13ZM6.86,10H17.14l.8,3H6.06Zm.39,8.25A1.25,1.25,0,1,1,8.5,17,1.25,1.25,0,0,1,7.25,18.25Zm9.5,0A1.25,1.25,0,1,1,18,17,1.25,1.25,0,0,1,16.75,18.25Z"/></svg>