<svg id="Hot_2" data-name="Hot 2" xmlns="http://www.w3.org/2000/svg" viewBox="0 0 24 24"><title>iconoteka_drive_eta_b_f</title><path d="M20,1a4,4,0,1,0,4,4A4,4,0,0,0,20,1Zm0,6.5a2.5,2.5,0,0,1,0-5V5h2.5A2.5,2.5,0,0,1,20,7.5ZM18.47,13H17l-.91-3.52A2,2,0,0,0,14.14,8H4.86A2,2,0,0,0,2.93,9.48L2,12.82V13H.53a.53.53,0,0,0-.53.53V14a.69.69,0,0,0,.51.66L2,15v4H2v3.34a.67.67,0,0,0,.66.66h.68A.67.67,0,0,0,4,22.34V21H15v1.34a.67.67,0,0,0,.66.66h.68a.67.67,0,0,0,.66-.66V15l1.49-.4A.69.69,0,0,0,19,14v-.44A.53.53,0,0,0,18.47,13ZM4.86,10h9.28l.8,3H4.06Zm.39,8.25A1.25,1.25,0,1,1,6.5,17,1.25,1.25,0,0,1,5.25,18.25Zm8.5,0A1.25,1.25,0,1,1,15,17,1.25,1.25,0,0,1,13.75,18.25Z"/></svg>