<svg id="Hot_2" data-name="Hot 2" xmlns="http://www.w3.org/2000/svg" viewBox="0 0 24 24"><title>iconoteka_directions_boat_b_f</title><path d="M7.89,16.46a.59.59,0,0,0,.11.08l.12-.08a5.91,5.91,0,0,1,7.77,0,.59.59,0,0,0,.11.08l.12-.08A6,6,0,0,1,21,15.1V13a3,3,0,0,0-2-2.83h0V6a2,2,0,0,0-2-2H7A2,2,0,0,0,5,6v4.12H5A3,3,0,0,0,3,13V15.1A6,6,0,0,1,7.89,16.46ZM7,6H17V9.4L12,7.6,7,9.4ZM22.63,18a3.94,3.94,0,0,0-5.26,0,1.91,1.91,0,0,1-2.74,0,3.94,3.94,0,0,0-5.26,0,1.91,1.91,0,0,1-2.74,0,3.94,3.94,0,0,0-5.26,0A2.13,2.13,0,0,1,0,18.58v2a4.16,4.16,0,0,0,2.63-1,1.91,1.91,0,0,1,2.74,0,3.93,3.93,0,0,0,5.26,0,1.91,1.91,0,0,1,2.74,0,3.93,3.93,0,0,0,5.26,0,1.91,1.91,0,0,1,2.74,0,4.16,4.16,0,0,0,2.63,1v-2A2.13,2.13,0,0,1,22.63,18Z"/></svg>