<svg id="Layer_1" data-name="Layer 1" xmlns="http://www.w3.org/2000/svg" viewBox="0 0 24 24"><title>iconoteka_fingerprint__touch_id_b_s</title><path d="M14,18a5,5,0,0,1-5-5V10a3,3,0,0,1,6,0v3a1,1,0,0,1-2,0V10H11v3a3,3,0,0,0,6,0V10A5,5,0,0,0,7,10v3a7,7,0,0,0,11,5.73L16.87,17.1A5,5,0,0,1,14,18ZM13.14,1.07l-.25,2A7,7,0,0,1,19,10v3a5,5,0,0,1-.92,2.89L19.71,17A6.87,6.87,0,0,0,21,13V10A9,9,0,0,0,13.14,1.07ZM5,10a7,7,0,0,1,6.1-6.94l-.26-2A9,9,0,0,0,3,10v3a11,11,0,0,0,2.48,7L7,18.69A9.05,9.05,0,0,1,5,13ZM7.05,21.52A11,11,0,0,0,14,24V22a9.05,9.05,0,0,1-5.69-2Z"/></svg>