<svg id="Layer_1" data-name="Layer 1" xmlns="http://www.w3.org/2000/svg" viewBox="0 0 24 24"><title>iconoteka_ear_hearing_b_f</title><path d="M12.6,1A7.61,7.61,0,0,0,5,8.6V19.17a3.83,3.83,0,0,0,6.54,2.71L16.41,17A12.14,12.14,0,0,0,20,8.34,7.38,7.38,0,0,0,12.6,1Zm3.78,10.68L14.52,11A7.32,7.32,0,0,0,15,8.34,2.37,2.37,0,0,0,12.6,6,2.61,2.61,0,0,0,10,8.6v2l1.09,1.08A3.13,3.13,0,0,1,8.88,17H8V15h.88A1.12,1.12,0,0,0,10,13.88a1.1,1.1,0,0,0-.33-.79L8,11.41V8.6A4.61,4.61,0,0,1,12.6,4,4.37,4.37,0,0,1,17,8.34,9.29,9.29,0,0,1,16.38,11.68Z"/></svg>