<svg id="Layer_1" data-name="Layer 1" xmlns="http://www.w3.org/2000/svg" viewBox="0 0 24 24"><title>iconoteka_face_adult__face_unisex_b_f</title><path d="M20.14,10l-.09-.1a8,8,0,0,0-2-6.18,8.07,8.07,0,0,0-12.14,0A8,8,0,0,0,4,9.91L3.83,10a2.94,2.94,0,0,0-.66,2.38l.29,1.82a3.24,3.24,0,0,0,1.94,2.5v0a8.62,8.62,0,0,0,3.95,5.47A5.11,5.11,0,0,0,12,23a5.17,5.17,0,0,0,2.66-.73,8.64,8.64,0,0,0,3.94-5.47v0a3.24,3.24,0,0,0,1.94-2.5l.28-1.85A3,3,0,0,0,20.14,10ZM18.56,14a1.24,1.24,0,0,1-1,1l-.64.12-.28,1.22a6.52,6.52,0,0,1-3,4.19,3.18,3.18,0,0,1-3.26,0,6.52,6.52,0,0,1-3-4.19L7.08,15.1,6.44,15a1.25,1.25,0,0,1-1-1l-.3-1.84A1,1,0,0,1,6.08,11H8c.21,0,.42,0,.63,0A1.21,1.21,0,0,0,8,12a1.25,1.25,0,0,0,2.5,0,1.23,1.23,0,0,0-1-1.2,6.24,6.24,0,0,0,3.87-2.93L14,6.77V7.5A3.5,3.5,0,0,0,17.5,11h.4a1,1,0,0,1,.94,1.09ZM14,17H10A2.08,2.08,0,0,0,14,17Zm-2-1a1,1,0,0,0,1-1H11A1,1,0,0,0,12,16Zm2.75-5.25A1.25,1.25,0,1,0,16,12,1.25,1.25,0,0,0,14.75,10.75Z"/></svg>