<svg id="Layer_1" data-name="Layer 1" xmlns="http://www.w3.org/2000/svg" viewBox="0 0 24 24"><title>iconoteka_wc__toilet_b_s</title><path d="M7,5.5A1.75,1.75,0,1,0,5.25,3.75,1.75,1.75,0,0,0,7,5.5Zm10,0a1.75,1.75,0,1,0-1.75-1.75A1.75,1.75,0,0,0,17,5.5ZM7,7A5.19,5.19,0,0,0,3.3,8.53L3,8.82V16H5.65v6h2.7V16H11V8.82l-.29-.29A5.19,5.19,0,0,0,7,7Zm2,7H5V9.69a3.3,3.3,0,0,1,4,0ZM19.6,8.19,19.41,8a3.41,3.41,0,0,0-4.82,0l-.19.19L11.82,18h3.83v4h2.7V18h3.83ZM14.41,16l1.77-6.74a1.41,1.41,0,0,1,1.64,0L19.59,16Z"/></svg>