<svg id="Layer_1" data-name="Layer 1" xmlns="http://www.w3.org/2000/svg" viewBox="0 0 24 24"><title>iconoteka_ear_hearing_b_s</title><path d="M9.88,14H9v2h.88A3.12,3.12,0,0,0,13,12.88a3.09,3.09,0,0,0-.91-2.21L11,9.59V8.5A1.52,1.52,0,0,1,12.58,7,1.44,1.44,0,0,1,14,8.5a5.15,5.15,0,0,1-.2,1.4l1.93.55a7.31,7.31,0,0,0,.27-2A3.45,3.45,0,0,0,12.51,5,3.51,3.51,0,0,0,9,8.5v1.91l1.67,1.68A1.12,1.12,0,0,1,9.88,14ZM12.6,1A7.61,7.61,0,0,0,5,8.6H7A5.6,5.6,0,0,1,12.6,3,5.38,5.38,0,0,1,18,8.34a10.21,10.21,0,0,1-3,7.25l-4.88,4.87A1.82,1.82,0,0,1,7,19.17V17H5v2.17a3.83,3.83,0,0,0,6.54,2.71L16.41,17A12.14,12.14,0,0,0,20,8.34,7.38,7.38,0,0,0,12.6,1Z"/></svg>