<svg id="Layer_1" data-name="Layer 1" xmlns="http://www.w3.org/2000/svg" viewBox="0 0 24 24"><title>iconoteka_group_work_b_s</title><path d="M6.5,11A3.5,3.5,0,1,0,3,7.5,3.5,3.5,0,0,0,6.5,11Zm0-5A1.5,1.5,0,1,1,5,7.5,1.5,1.5,0,0,1,6.5,6Zm11,5A3.5,3.5,0,1,0,14,7.5,3.5,3.5,0,0,0,17.5,11Zm0-5A1.5,1.5,0,1,1,16,7.5,1.5,1.5,0,0,1,17.5,6Zm6.21,9.2a8.8,8.8,0,0,0-4.09-2.31L19,12.74l-1.5,1.9L16,12.74l-.62.15A8.83,8.83,0,0,0,12,14.58a8.83,8.83,0,0,0-3.38-1.69L8,12.74l-1.5,1.9L5,12.74l-.62.15A8.8,8.8,0,0,0,.29,15.2L0,15.49V21H24V15.49ZM11,19H2V16.33A6.78,6.78,0,0,1,4.25,15L6.5,17.88,8.75,15A6.78,6.78,0,0,1,11,16.33Zm11,0H13V16.33A6.78,6.78,0,0,1,15.25,15l2.25,2.86L19.75,15A6.78,6.78,0,0,1,22,16.33Z"/></svg>