<svg id="Layer_1" data-name="Layer 1" xmlns="http://www.w3.org/2000/svg" viewBox="0 0 24 24"><title>iconoteka_rowing_b_f</title><path d="M14.57,4.5a1.75,1.75,0,1,0-1.75-1.75A1.75,1.75,0,0,0,14.57,4.5ZM24,14H18.77L17.22,8.22A3,3,0,0,0,14.32,6H5.69a1,1,0,0,0-1,.8A.8.8,0,0,0,4.7,7s0,0,0,0,0,.06,0,.1v.09L6.54,14H0l1,1.89A2,2,0,0,0,2.74,17h4.6l.54,2a1.7,1.7,0,0,0-.52,1.7L8,23.22l3.27-.88-.67-2.51a1.7,1.7,0,0,0-1.31-1.22L8.9,17H21.26a2,2,0,0,0,1.79-1.11ZM9.4,14l2.5-2.49L14.39,14Zm3.2-4.61a1,1,0,0,0-1.41,0L7.77,12.8,6.48,8h6.84a1,1,0,0,1,1,.74l.85,3.19Z"/></svg>