<svg id="Layer_1" data-name="Layer 1" xmlns="http://www.w3.org/2000/svg" viewBox="0 0 24 24"><title>iconoteka_tub_hot_b_f</title><path d="M15.85,7.41A2.56,2.56,0,0,1,16.6,5.6a4.21,4.21,0,0,0,1.25-3V2h-1.7v.59A2.56,2.56,0,0,1,15.4,4.4a4.21,4.21,0,0,0-1.25,3V8h1.7Zm4,0A2.56,2.56,0,0,1,20.6,5.6a4.21,4.21,0,0,0,1.25-3V2h-1.7v.59A2.56,2.56,0,0,1,19.4,4.4a4.21,4.21,0,0,0-1.25,3V8h1.7ZM5.75,6.49A1.75,1.75,0,1,0,4,4.74,1.75,1.75,0,0,0,5.75,6.49Zm2.84,2.4A2,2,0,0,0,6.93,8H5A1,1,0,0,0,4,9v2h6ZM2,13v6a2,2,0,0,0,2,2H20a2,2,0,0,0,2-2V13Z"/></svg>