<svg id="Layer_1" data-name="Layer 1" xmlns="http://www.w3.org/2000/svg" viewBox="0 0 24 24"><title>iconoteka_vote_b_s</title><path d="M22,6v8h2V6ZM16.55,1.43A2.46,2.46,0,0,0,15,4.36L15.46,6H13.75A1.76,1.76,0,0,0,12,7.73V8.92a6.71,6.71,0,0,0,1.8,4.62l.44.46H21V5.81L19,.52ZM19,12H15.11A4.69,4.69,0,0,1,14,8.92V8h2.58l.56-.07.29-.38a1.31,1.31,0,0,0,.21-1.1L17,3.85a.47.47,0,0,1,.29-.55l.55-.21L19,6.19ZM0,18H2V10H0Zm9.76-8H3v8.19l2,5.28,2.41-.9A2.46,2.46,0,0,0,9,19.64L8.54,18h1.71A1.76,1.76,0,0,0,12,16.27V15.08a6.71,6.71,0,0,0-1.8-4.62ZM10,16H7.42l-.56.07-.29.38a1.31,1.31,0,0,0-.21,1.1L7,20.15a.47.47,0,0,1-.29.55l-.55.21L5,17.81V12H8.89A4.69,4.69,0,0,1,10,15.08Z"/></svg>