<svg id="Layer_1" data-name="Layer 1" xmlns="http://www.w3.org/2000/svg" viewBox="0 0 24 24"><title>iconoteka_face_adult_female_b_s</title><path d="M21.56,17.32l-1-3.3.25-1.63A3,3,0,0,0,20.14,10l-.09-.1a8,8,0,0,0-2-6.18,8.07,8.07,0,0,0-12.14,0A8,8,0,0,0,4,9.91L3.83,10a2.94,2.94,0,0,0-.66,2.38L3.43,14l-1,3.3A2.85,2.85,0,0,0,5.18,21H7.77a9,9,0,0,0,1.58,1.23A5.11,5.11,0,0,0,12,23a5.17,5.17,0,0,0,2.66-.73A9.36,9.36,0,0,0,16.23,21h2.59a2.85,2.85,0,0,0,2.74-3.68ZM16,4.5A6.13,6.13,0,0,1,18.09,9H17.5A1.5,1.5,0,0,1,16,7.5Zm-8.57.57A6,6,0,0,1,12,3a6.1,6.1,0,0,1,1.71.25L11.63,6.87A4.21,4.21,0,0,1,8,9H5.91A6.11,6.11,0,0,1,7.43,5.07ZM5.18,19a.84.84,0,0,1-.69-.35.83.83,0,0,1-.13-.76l.45-1.5a3.16,3.16,0,0,0,.59.35v0A8.45,8.45,0,0,0,6.26,19Zm11.74-3.9-.28,1.22a6.52,6.52,0,0,1-3,4.19,3.18,3.18,0,0,1-3.26,0,6.52,6.52,0,0,1-3-4.19L7.08,15.1,6.44,15a1.25,1.25,0,0,1-1-1l-.3-1.84A1,1,0,0,1,6.08,11H8c.21,0,.42,0,.63,0A1.21,1.21,0,0,0,8,12a1.25,1.25,0,0,0,2.5,0,1.23,1.23,0,0,0-1-1.2,6.24,6.24,0,0,0,3.87-2.93L14,6.77V7.5A3.5,3.5,0,0,0,17.5,11h.4a1,1,0,0,1,.94,1.09L18.56,14a1.24,1.24,0,0,1-1,1Zm2.59,3.55a.84.84,0,0,1-.69.35H17.74a8.45,8.45,0,0,0,.86-2.24v0a3.16,3.16,0,0,0,.59-.35l.46,1.5A.86.86,0,0,1,19.51,18.65ZM14,17H10A2.08,2.08,0,0,0,14,17Zm-2-1a1,1,0,0,0,1-1H11A1,1,0,0,0,12,16Zm2.75-5.25A1.25,1.25,0,1,0,16,12,1.25,1.25,0,0,0,14.75,10.75Z"/></svg>