<svg id="Layer_1" data-name="Layer 1" xmlns="http://www.w3.org/2000/svg" viewBox="0 0 24 24"><title>iconoteka_transfer_within_a_station_b_s</title><path d="M20,6.58V9H16v2h8.42Zm0,10.84V15h4V13H15.58ZM9.46,5.13A1.75,1.75,0,1,0,7.71,3.38,1.75,1.75,0,0,0,9.46,5.13Zm0,5.77a1.56,1.56,0,0,0,.16.2l2.74,2.74,1.41-1.42L11.09,9.78,9.42,6.89a2,2,0,0,0-2.73-.73L3.58,8a2,2,0,0,0-.93,1.2l-1,3.59,1.93.53,1-3.59L6.45,8.61,4.11,17.14,1.3,22H3.61L5.9,18h0A1,1,0,0,0,6,17.8l.8-2.9L10.89,22H13.2L7.69,12.46a.82.82,0,0,0-.17-.2L8.39,9.1Z"/></svg>