<svg id="Layer_1" data-name="Layer 1" xmlns="http://www.w3.org/2000/svg" viewBox="0 0 24 24"><title>iconoteka_supervisor_b_f</title><path d="M12,5A2.5,2.5,0,1,0,9.5,2.5,2.5,2.5,0,0,0,12,5Zm5,4.08a7.07,7.07,0,0,0-10,0V12H17ZM10.5,15.5A1.5,1.5,0,1,0,12,14,1.5,1.5,0,0,0,10.5,15.5ZM9,19.21V22h6V19.21a5.35,5.35,0,0,0-6,0ZM20,17a1.5,1.5,0,1,0-1.5-1.5A1.5,1.5,0,0,0,20,17Zm0,1.29a5.34,5.34,0,0,0-3,.92V22h6V19.21A5.34,5.34,0,0,0,20,18.29ZM4,17a1.5,1.5,0,1,0-1.5-1.5A1.5,1.5,0,0,0,4,17ZM1,19.21V22H7V19.21a5.35,5.35,0,0,0-6,0Z"/></svg>