<svg id="Layer_1" data-name="Layer 1" xmlns="http://www.w3.org/2000/svg" viewBox="0 0 24 24"><defs><style>.cls-1{fill-rule:evenodd;}</style></defs><title>iconoteka_transfer_within_a_station_b_f</title><path class="cls-1" d="M9.68,5.14a1.75,1.75,0,1,0,0-3.5,1.75,1.75,0,0,0,0,3.5Zm.17,5.77a1.56,1.56,0,0,0,.16.2l2.72,2.75,1.42-1.4L11.52,9.8,9.87,6.9a2,2,0,0,0-2.73-.75L4,7.93a2,2,0,0,0-.94,1.21l-1,3.58L4,13.26,5,9.67l1.38-.78L4.08,17.13,1.26,22H3.57L5.88,18h0a.94.94,0,0,0,.1-.23l.82-2.9L10.85,22l2.31,0L8.41,13.72l1-3.58Zm9.73-4.33V9H16v2h8Zm.84,10.84V15H24V13H16ZM3.38,24l0,0H3.32Z"/></svg>