<svg id="Layer_1" data-name="Layer 1" xmlns="http://www.w3.org/2000/svg" viewBox="0 0 24 24"><title>iconoteka_face_adult_male_b_s</title><path d="M12,16a1,1,0,0,0,1-1H11A1,1,0,0,0,12,16Zm-1.5-4a1.25,1.25,0,1,0-1.25,1.25A1.25,1.25,0,0,0,10.5,12Zm9.64-2-.09-.1a8,8,0,0,0-2-6.18,8.07,8.07,0,0,0-12.14,0A8,8,0,0,0,4,9.91L3.83,10a2.94,2.94,0,0,0-.66,2.38l.29,1.82a3.24,3.24,0,0,0,1.94,2.5v0a8.62,8.62,0,0,0,3.95,5.47A5.11,5.11,0,0,0,12,23a5.17,5.17,0,0,0,2.66-.73,8.64,8.64,0,0,0,3.94-5.47v0a3.24,3.24,0,0,0,1.94-2.5l.28-1.85A3,3,0,0,0,20.14,10Zm-12.71-5a6.08,6.08,0,0,1,9.14,0,6.1,6.1,0,0,1,.61.83,3.86,3.86,0,0,0-1.88,0l-1.48.35a8.49,8.49,0,0,1-4.19,0L8.77,6a3.71,3.71,0,0,0-2,0A5.48,5.48,0,0,1,7.43,5.07ZM18.56,14a1.24,1.24,0,0,1-1,1l-.64.12-.28,1.22a6.52,6.52,0,0,1-3,4.19,3.18,3.18,0,0,1-3.26,0,6.52,6.52,0,0,1-3-4.19L7.08,15.1,6.44,15a1.25,1.25,0,0,1-1-1l-.3-1.84A.94.94,0,0,1,6,11V9.64a1.8,1.8,0,0,1,.7-1.43,1.77,1.77,0,0,1,1.57-.32l.86.22a10.6,10.6,0,0,0,5.16.05l1.48-.35a1.78,1.78,0,0,1,1.54.33A1.82,1.82,0,0,1,18,9.57V11a.94.94,0,0,1,.84,1.07ZM14,17H10A2.08,2.08,0,0,0,14,17Zm.75-6.25A1.25,1.25,0,1,0,16,12,1.25,1.25,0,0,0,14.75,10.75Z"/></svg>