<svg id="Layer_1" data-name="Layer 1" xmlns="http://www.w3.org/2000/svg" viewBox="0 0 24 24"><title>iconoteka_face_adult_male_b_s</title><path d="M12,16a1,1,0,0,0,1-1H11A1,1,0,0,0,12,16Zm-1.5-4a1.25,1.25,0,1,0-1.25,1.25A1.25,1.25,0,0,0,10.5,12ZM14,17H10A2.08,2.08,0,0,0,14,17Zm.75-6.25A1.25,1.25,0,1,0,16,12,1.25,1.25,0,0,0,14.75,10.75ZM20.14,10l-.09-.1a8,8,0,0,0-2-6.18,8.07,8.07,0,0,0-12.14,0A8,8,0,0,0,4,9.93l-.09.1a3,3,0,0,0-.68,2.36l.28,1.85a3.24,3.24,0,0,0,1.94,2.5v0a8.64,8.64,0,0,0,3.94,5.47A5.17,5.17,0,0,0,12,23h0a5.17,5.17,0,0,0,2.66-.73,8.64,8.64,0,0,0,3.94-5.47v0a3.24,3.24,0,0,0,1.94-2.5l.28-1.85A3,3,0,0,0,20.14,10Zm-12.71-5a6.08,6.08,0,0,1,9.14,0,6.1,6.1,0,0,1,.61.83,3.86,3.86,0,0,0-1.88,0l-1.48.35A8.56,8.56,0,0,1,12,6.44a8.56,8.56,0,0,1-1.82-.23L8.7,5.86a3.86,3.86,0,0,0-1.88,0A5.36,5.36,0,0,1,7.43,5.07ZM18.56,14a1.24,1.24,0,0,1-1,1l-.64.12-.28,1.22a6.52,6.52,0,0,1-3,4.19,3.18,3.18,0,0,1-3.26,0,6.52,6.52,0,0,1-3-4.19L7.08,15.1,6.44,15a1.24,1.24,0,0,1-1-1l-.28-1.86A.94.94,0,0,1,6,11V9.57a1.82,1.82,0,0,1,.69-1.43,1.78,1.78,0,0,1,1.54-.33l1.48.35A11,11,0,0,0,12,8.44a11,11,0,0,0,2.29-.28l1.48-.35a1.78,1.78,0,0,1,1.54.33A1.82,1.82,0,0,1,18,9.57V11a.94.94,0,0,1,.84,1.07Z"/></svg>