<svg id="Layer_1" data-name="Layer 1" xmlns="http://www.w3.org/2000/svg" viewBox="0 0 24 24"><title>iconoteka_rowing_b_f</title><path d="M14.57,5.5a1.75,1.75,0,1,0-1.75-1.75A1.75,1.75,0,0,0,14.57,5.5ZM24,15H18.77L17.22,9.22A3,3,0,0,0,14.32,7H5.69a1,1,0,0,0-1,.8A.8.8,0,0,0,4.7,8s0,0,0,0,0,.06,0,.1v.09L6.54,15H0l1,2H7.07l.51,1.89a1.67,1.67,0,0,0-.53,1.72l.67,2.51L11,22.25l-.68-2.52A1.68,1.68,0,0,0,9,18.52L8.63,17H23ZM9.4,15l2.5-2.49L14.39,15Zm3.2-4.61a1,1,0,0,0-1.41,0L7.77,13.8,6.48,9h6.84a1,1,0,0,1,1,.74l.85,3.19Z"/></svg>