<svg id="Layer_1" data-name="Layer 1" xmlns="http://www.w3.org/2000/svg" viewBox="0 0 24 24"><title>iconoteka_thumb_down_b_s</title><path d="M19,3V15h2V3ZM16,3H6.68A1,1,0,0,0,6,3.31l-.24.25a10.48,10.48,0,0,0-2.81,7.21v1.56A2.68,2.68,0,0,0,5.58,15H9.67l-1,3.39A3.53,3.53,0,0,0,11,22.71l.7.24A1.19,1.19,0,0,0,12,23a1,1,0,0,0,.88-.52l4-7.41a1,1,0,0,0,.12-.48V4A1,1,0,0,0,16,3ZM15,14.34l-3.48,6.44a1.52,1.52,0,0,1-.89-1.84l1.15-4A1.51,1.51,0,0,0,10.34,13H5.58a.67.67,0,0,1-.67-.67V10.77A8.45,8.45,0,0,1,7.12,5H15Z"/></svg>