<svg id="Layer_1" data-name="Layer 1" xmlns="http://www.w3.org/2000/svg" viewBox="0 0 24 24"><title>iconoteka_supervisor_b_s</title><path d="M12,5.85A2.85,2.85,0,1,0,9.15,3,2.86,2.86,0,0,0,12,5.85Zm0-4A1.15,1.15,0,1,1,10.85,3,1.16,1.16,0,0,1,12,1.85Zm5,7.32-.29-.29a6.66,6.66,0,0,0-9.42,0L7,9.17V13H17ZM15,11H9V10a4.66,4.66,0,0,1,6,0Zm-4.5,5.5A1.5,1.5,0,1,0,12,15,1.5,1.5,0,0,0,10.5,16.5ZM9,20.21V22h6V20.21a5.35,5.35,0,0,0-6,0ZM20,18a1.5,1.5,0,1,0-1.5-1.5A1.5,1.5,0,0,0,20,18Zm0,1.29a5.34,5.34,0,0,0-3,.92V22h6V20.21A5.34,5.34,0,0,0,20,19.29ZM4,18a1.5,1.5,0,1,0-1.5-1.5A1.5,1.5,0,0,0,4,18ZM1,20.21V22H7V20.21a5.35,5.35,0,0,0-6,0Z"/></svg>