<svg id="Layer_1" data-name="Layer 1" xmlns="http://www.w3.org/2000/svg" viewBox="0 0 24 24"><title>iconoteka_face_child__child_care_b_s</title><path d="M15,16H9A3.26,3.26,0,0,0,15,16Zm0-5.25A1.25,1.25,0,1,0,16.25,12,1.25,1.25,0,0,0,15,10.75ZM10.25,12A1.25,1.25,0,1,0,9,13.25,1.25,1.25,0,0,0,10.25,12ZM12,15a1,1,0,0,0,1-1H11A1,1,0,0,0,12,15Zm8-5.48A8.13,8.13,0,0,0,12.06,3H12A8.13,8.13,0,0,0,4.05,9.52a4,4,0,0,0,.63,7.25,7.74,7.74,0,0,0,14.64,0A4,4,0,0,0,20,9.52ZM18.35,15l-.63.11-.16.63a5.74,5.74,0,0,1-11.12,0l-.16-.63L5.65,15a2,2,0,0,1-.35-3.82l.57-.22.07-.59A6.06,6.06,0,0,1,8.61,6.06a3.12,3.12,0,0,0,0,.44,3.5,3.5,0,0,0,6.13,2.31l-1.5-1.32A1.53,1.53,0,0,1,12.06,8a1.5,1.5,0,0,1,0-3,6.13,6.13,0,0,1,6,5.33l.07.59.57.22A2,2,0,0,1,20,13,2,2,0,0,1,18.35,15Z"/></svg>