<svg id="Layer_1" data-name="Layer 1" xmlns="http://www.w3.org/2000/svg" viewBox="0 0 24 24"><title>iconoteka_add_group_b_s</title><path d="M13,11a3,3,0,1,0-3-3A3,3,0,0,0,13,11Zm0-4.3A1.3,1.3,0,1,1,11.7,8,1.3,1.3,0,0,1,13,6.7ZM5,11A3,3,0,1,0,2,8,3,3,0,0,0,5,11ZM5,6.7A1.3,1.3,0,1,1,3.7,8,1.3,1.3,0,0,1,5,6.7Zm8,5.66a6.61,6.61,0,0,0-4,1.35,6.64,6.64,0,0,0-8.71.6l-.29.3V20H18V14.61l-.29-.3A6.65,6.65,0,0,0,13,12.36ZM8,18H2V15.46a4.76,4.76,0,0,1,6,0Zm8,0H10V15.46a4.76,4.76,0,0,1,6,0Zm5.8-7.8V8H20.2v2.2H18v1.6h2.2V14h1.6V11.8H24V10.2Z"/></svg>