<svg id="Layer_1" data-name="Layer 1" xmlns="http://www.w3.org/2000/svg" viewBox="0 0 24 24"><title>iconoteka_directions_bike_b_f</title><path d="M16.14,4.54a1.75,1.75,0,1,0-1.75-1.75A1.75,1.75,0,0,0,16.14,4.54ZM19,13a5,5,0,1,0,5,5A5,5,0,0,0,19,13Zm0,8a3,3,0,1,1,3-3A3,3,0,0,1,19,21ZM5,13a5,5,0,1,0,5,5A5,5,0,0,0,5,13Zm0,8a3,3,0,1,1,3-3A3,3,0,0,1,5,21ZM14.71,8.12l3.58,3.59,1.42-1.42L15.12,5.71a3,3,0,0,0-4.24,0L8,8.59a2,2,0,0,0,0,2.82l3,3V20h2V14.41A2,2,0,0,0,12.41,13l-2-2,2.88-2.88A1,1,0,0,1,14.71,8.12Z"/></svg>