<svg id="Layer_1" data-name="Layer 1" xmlns="http://www.w3.org/2000/svg" viewBox="0 0 24 24"><defs><style>.cls-1,.cls-3{stroke:#000;}.cls-1,.cls-2,.cls-3{stroke-miterlimit:10;stroke-width:2px;}.cls-2{stroke:#fff;}.cls-3{fill:none;}</style></defs><title>iconoteka_sofa__event_seat_b_f</title><path class="cls-1" d="M6,15V6A1.94,1.94,0,0,1,7.88,4h8.24A1.94,1.94,0,0,1,18,6v9Z"/><path class="cls-2" d="M22,21H2V12.5A2.5,2.5,0,0,1,4.5,10h0A2.5,2.5,0,0,1,7,12.5V14H17V12.5A2.5,2.5,0,0,1,19.5,10h0A2.5,2.5,0,0,1,22,12.5Z"/><line class="cls-3" x1="6" y1="19" x2="6" y2="22"/><line class="cls-3" x1="18" y1="19" x2="18" y2="22"/></svg>