<svg id="Layer_1" data-name="Layer 1" xmlns="http://www.w3.org/2000/svg" viewBox="0 0 24 24"><defs><style>.cls-1,.cls-3{stroke:#000;}.cls-1,.cls-2,.cls-3{stroke-miterlimit:10;stroke-width:2px;}.cls-2{stroke:#fff;}.cls-3{fill:none;}</style></defs><title>iconoteka_sofa__weekend_b_f</title><path class="cls-1" d="M4,16V9A1.94,1.94,0,0,1,5.88,7H18.12A1.94,1.94,0,0,1,20,9v7Z"/><path class="cls-2" d="M24,21H0V13.5A2.5,2.5,0,0,1,2.5,11h0A2.5,2.5,0,0,1,5,13.5V15H19V13.5A2.5,2.5,0,0,1,21.5,11h0A2.5,2.5,0,0,1,24,13.5Z"/><line class="cls-3" x1="4" y1="19" x2="4" y2="22"/><line class="cls-3" x1="20" y1="19" x2="20" y2="22"/></svg>