<svg id="Layer_1" data-name="Layer 1" xmlns="http://www.w3.org/2000/svg" viewBox="0 0 24 24"><title>iconoteka_gamepad_wireless_b_s</title><path d="M12,2a4.07,4.07,0,0,1,2.91,1.21l1.42-1.42a6.13,6.13,0,0,0-8.66,0L9.09,3.21A4.07,4.07,0,0,1,12,2Zm6,3H6a5,5,0,0,0-5,5v7.22a3.78,3.78,0,0,0,7.16,1.69l1-1.91h5.76l1,1.91A3.78,3.78,0,0,0,23,17.22V10A5,5,0,0,0,18,5Zm3,12.22a1.78,1.78,0,0,1-3.37.8l-1.51-3H7.88L6.37,18A1.78,1.78,0,0,1,3,17.22V10A3,3,0,0,1,6,7H18a3,3,0,0,1,3,3ZM7.8,8.5H6.2v1.7H4.5v1.6H6.2v1.7H7.8V11.8H9.5V10.2H7.8Zm9.2,0A2.5,2.5,0,1,0,19.5,11,2.5,2.5,0,0,0,17,8.5Zm0,3.6A1.1,1.1,0,1,1,18.1,11,1.1,1.1,0,0,1,17,12.1Z"/></svg>