<svg id="Layer_1" data-name="Layer 1" xmlns="http://www.w3.org/2000/svg" viewBox="0 0 24 24"><title>iconoteka_pizza_b_s</title><path d="M21.34,4.5a18.53,18.53,0,0,0-18.59,0L1.88,5,12,22.6,22.2,5ZM16.1,11.58a1.21,1.21,0,0,0-.36-.56,1.29,1.29,0,1,0-1.69,2,1.27,1.27,0,0,0,1.08.28L12,18.6l-1.37-2.37a.56.56,0,0,0,.12,0,1.29,1.29,0,1,0,.48-2.54,1.28,1.28,0,0,0-1.48,1L6.64,9.25a12.82,12.82,0,0,1,10.8,0Zm2.36-4.09a14.87,14.87,0,0,0-12.83,0l-1-1.73a16.73,16.73,0,0,1,14.83,0ZM9.94,8.93a1.3,1.3,0,1,0,1.65.8A1.3,1.3,0,0,0,9.94,8.93Z"/></svg>