<svg id="Layer_1" data-name="Layer 1" xmlns="http://www.w3.org/2000/svg" viewBox="0 0 24 24"><title>iconoteka_smoke_free_b_f</title><path d="M3.94,9.15l2-2,2,2L9.07,8l-2-2,2-2L7.93,2.89l-2,2-2-2L2.81,4l2,2-2,2ZM17.13,16V12.84a2.9,2.9,0,0,0-1.54-2.56A4.88,4.88,0,0,1,13,6V3H11V6a6.9,6.9,0,0,0,3.65,6.09.88.88,0,0,1,.48.79V16Zm.34-9.25A.89.89,0,0,1,17,6V3H15V6a2.91,2.91,0,0,0,1.53,2.56,4.89,4.89,0,0,1,2.6,4.32V16h2V12.84A6.89,6.89,0,0,0,17.47,6.75ZM17,21h3a1,1,0,0,0,1-1V19a1,1,0,0,0-1-1H17ZM3,21H15V18H3Z"/></svg>