<svg id="Layer_1" data-name="Layer 1" xmlns="http://www.w3.org/2000/svg" viewBox="0 0 24 24"><title>iconoteka_smoke_free_b_s</title><path d="M3.94,9.15l2-2,2,2L9.07,8l-2-2,2-2L7.93,2.89l-2,2-2-2L2.81,4l2,2-2,2ZM3,21H20a1,1,0,0,0,1-1V17a1,1,0,0,0-1-1H3Zm13.9-3.2h2.3v1.4H16.9Zm-12.1,0H15.1v1.4H4.8Zm9.85-6.75a.88.88,0,0,1,.48.79V14h2V11.84a2.9,2.9,0,0,0-1.54-2.56A4.88,4.88,0,0,1,13,5V3H11V5A6.9,6.9,0,0,0,14.65,11.05Zm2.82-5.3A.89.89,0,0,1,17,5V3H15V5a2.91,2.91,0,0,0,1.53,2.56,4.89,4.89,0,0,1,2.6,4.32V14h2V11.84A6.89,6.89,0,0,0,17.47,5.75Z"/></svg>