<svg xmlns="http://www.w3.org/2000/svg" viewBox="0 0 24 24"><title>iconoteka_apps_b_f</title><g id="Clear_3" data-name="Clear 3"><path d="M19.3,3H14.7A1.7,1.7,0,0,0,13,4.7V9.3A1.7,1.7,0,0,0,14.7,11h4.6A1.7,1.7,0,0,0,21,9.3V4.7A1.7,1.7,0,0,0,19.3,3ZM9.3,3H4.7A1.7,1.7,0,0,0,3,4.7V9.3A1.7,1.7,0,0,0,4.7,11H9.3A1.7,1.7,0,0,0,11,9.3V4.7A1.7,1.7,0,0,0,9.3,3Zm10,10H14.7A1.7,1.7,0,0,0,13,14.7v4.6A1.7,1.7,0,0,0,14.7,21h4.6A1.7,1.7,0,0,0,21,19.3V14.7A1.7,1.7,0,0,0,19.3,13Zm-10,0H4.7A1.7,1.7,0,0,0,3,14.7v4.6A1.7,1.7,0,0,0,4.7,21H9.3A1.7,1.7,0,0,0,11,19.3V14.7A1.7,1.7,0,0,0,9.3,13Z"/></g></svg>