<svg id="Layer_1" data-name="Layer 1" xmlns="http://www.w3.org/2000/svg" viewBox="0 0 24 24"><title>iconoteka_signal_wifi_off_b_s</title><path d="M6.66,15.66l1.42,1.42a5.53,5.53,0,0,1,7.84,0l1.42-1.42a7.56,7.56,0,0,0-10.68,0Zm3,3L12,21l2.32-2.32A3.28,3.28,0,0,0,9.68,18.68ZM13,7.05v-2c-.33,0-.66,0-1,0A15.86,15.86,0,0,0,.69,9.69L2.1,11.1A13.92,13.92,0,0,1,12,7C12.34,7,12.67,7,13,7.05Zm2.83,5a9.79,9.79,0,0,1,3.09,2.08l1.41-1.41c-.24-.24-.49-.46-.74-.67ZM13,11.27v-2c-.33,0-.66,0-1,0a11.73,11.73,0,0,0-8.33,3.45l1.41,1.41A9.76,9.76,0,0,1,12,11.22C12.34,11.22,12.67,11.24,13,11.27Zm9.32-7.45L21.18,2.68,19,4.87,16.82,2.68,15.68,3.82,17.87,6,15.68,8.18l1.14,1.14L19,7.13l2.18,2.19,1.14-1.14L20.13,6Z"/></svg>