<svg id="Layer_1" data-name="Layer 1" xmlns="http://www.w3.org/2000/svg" viewBox="0 0 24 24"><title>iconoteka_settings_applications_b_s</title><path d="M18,3H6A3,3,0,0,0,3,6V18a3,3,0,0,0,3,3H18a3,3,0,0,0,3-3V6A3,3,0,0,0,18,3Zm1,15a1,1,0,0,1-1,1H6a1,1,0,0,1-1-1V6A1,1,0,0,1,6,5H18a1,1,0,0,1,1,1Z"/><path d="M13,15.18l1.27-.73,1.62.67a5.07,5.07,0,0,0,.77-1.31l-1.4-1.08V11.27l1.4-1.08a5.07,5.07,0,0,0-.77-1.31l-1.62.67L13,8.82l-.23-1.74A4.78,4.78,0,0,0,12,7a4.78,4.78,0,0,0-.76.08L11,8.82l-1.27.73L8.12,8.88a5.07,5.07,0,0,0-.77,1.31l1.4,1.08v1.46l-1.4,1.08a5.07,5.07,0,0,0,.77,1.31l1.62-.67,1.27.73.23,1.74A4.78,4.78,0,0,0,12,17a4.78,4.78,0,0,0,.76-.08ZM10.5,12A1.5,1.5,0,1,1,12,13.5,1.5,1.5,0,0,1,10.5,12Z"/></svg>