<svg xmlns="http://www.w3.org/2000/svg" viewBox="0 0 24 24"><title>iconoteka_bluetooth_settings_b_s</title><g id="Clear_3" data-name="Clear 3"><path d="M7,0V9.59L3.93,6.51,2.51,7.93,6.59,12,2.51,16.07l1.42,1.42L7,14.41V24l7.19-7.19L9.41,12l4.78-4.78Zm4.37,16.75L9,19.14V14.41ZM9,9.59V4.86l2.37,2.36Zm12.5,1.92,1.24-.9a4.13,4.13,0,0,0-.67-1.15l-1.4.62-.84-.49-.17-1.52a3.15,3.15,0,0,0-1.32,0l-.17,1.52-.84.49-1.4-.62a4.13,4.13,0,0,0-.67,1.15l1.24.9v1l-1.24.9a4.13,4.13,0,0,0,.67,1.15l1.4-.62.84.49.17,1.52a3.15,3.15,0,0,0,1.32,0l.17-1.52.84-.49,1.4.62a4.13,4.13,0,0,0,.67-1.15l-1.24-.9ZM19,13a1,1,0,1,1,1-1A1,1,0,0,1,19,13Z"/></g></svg>