<svg id="Layer_1" data-name="Layer 1" xmlns="http://www.w3.org/2000/svg" viewBox="0 0 24 24"><title>iconoteka_cut__scissors_b_f</title><path d="M21.64,4.48l-1.54-.2a4,4,0,0,0-3.51,1.3L12.4,10.27,9.79,7.67A3.51,3.51,0,0,0,10,6.5,3.45,3.45,0,0,0,9,4,3.58,3.58,0,0,0,4,4,3.49,3.49,0,0,0,8.5,9.36L10.86,12,8.5,14.64A3.6,3.6,0,0,0,4,15,3.5,3.5,0,0,0,9,20a3.46,3.46,0,0,0,1-2.48,3.51,3.51,0,0,0-.21-1.17l2.61-2.6,4.19,4.69a4,4,0,0,0,3.51,1.3l1.54-.2L14.12,12ZM5.44,7.56a1.5,1.5,0,1,1,2.12,0h0A1.53,1.53,0,0,1,5.44,7.56Zm2.12,11a1.53,1.53,0,0,1-2.12,0,1.5,1.5,0,1,1,2.12-2.12h0a1.5,1.5,0,0,1,0,2.12Z"/></svg>