<svg id="Layer_1" data-name="Layer 1" xmlns="http://www.w3.org/2000/svg" viewBox="0 0 24 24"><title>iconoteka_wifi__signal_wifi_4_alert_b_s</title><path d="M6.66,15.66l1.42,1.42a5.53,5.53,0,0,1,7.84,0l1.42-1.42a7.56,7.56,0,0,0-10.68,0Zm3,3L12,21l2.32-2.32A3.28,3.28,0,0,0,9.68,18.68Zm5.32-7V9.62a11.54,11.54,0,0,0-3-.4,11.73,11.73,0,0,0-8.33,3.45l1.41,1.41A9.76,9.76,0,0,1,12,11.22,10.06,10.06,0,0,1,15,11.69Zm4.59.31H15.83a9.79,9.79,0,0,1,3.09,2.08l1.41-1.41C20.09,12.43,19.84,12.21,19.59,12ZM15,7.33v-2A15.92,15.92,0,0,0,.69,9.69L2.1,11.1A13.92,13.92,0,0,1,12,7,14.29,14.29,0,0,1,15,7.33ZM19.76,7l.46-5H17.78l.46,5ZM19,8a1,1,0,1,0,1,1A1,1,0,0,0,19,8Z"/></svg>