<svg id="Layer_1" data-name="Layer 1" xmlns="http://www.w3.org/2000/svg" viewBox="0 0 24 24"><title>iconoteka_settings_applications_b_f</title><path d="M12,10.36A1.64,1.64,0,1,0,13.64,12,1.65,1.65,0,0,0,12,10.36ZM18,3H6A3,3,0,0,0,3,6V18a3,3,0,0,0,3,3H18a3,3,0,0,0,3-3V6A3,3,0,0,0,18,3Zm-.3,10.88A6.19,6.19,0,0,1,17.2,15a6,6,0,0,1-.72,1l-1.79-.73-1.22.7-.25,1.92a6.26,6.26,0,0,1-2.44,0L10.53,16l-1.22-.7L7.52,16a6,6,0,0,1-.72-1,6.19,6.19,0,0,1-.5-1.12L7.83,12.7V11.3L6.3,10.12A6.19,6.19,0,0,1,6.8,9a6,6,0,0,1,.72-1l1.79.73L10.53,8l.25-1.92a6.26,6.26,0,0,1,2.44,0L13.47,8l1.22.7L16.48,8a6,6,0,0,1,.72,1,6.19,6.19,0,0,1,.5,1.12L16.17,11.3v1.4Z"/></svg>