<svg id="Layer_1" data-name="Layer 1" xmlns="http://www.w3.org/2000/svg" viewBox="0 0 24 24"><title>iconoteka_share_microsoft_b_s</title><path d="M14.46,6.54A3,3,0,0,0,17.06,8a2.92,2.92,0,0,0,1.5-.41,3,3,0,0,0-3-5.19,3.12,3.12,0,0,0-.86.75,9,9,0,0,0-8.89,3.4l1.6,1.2A7,7,0,0,1,14.08,5.1,3,3,0,0,0,14.46,6.54ZM15.9,4.73A1.21,1.21,0,0,1,16.46,4a1.17,1.17,0,0,1,.6-.16,1.2,1.2,0,0,1,.6,2.24A1.2,1.2,0,0,1,15.9,4.73Zm-9.43,9.8a3,3,0,0,0,1.07-1.07,3,3,0,0,0-1.1-4.09A2.92,2.92,0,0,0,4.94,9a3,3,0,0,0-1.5,5.6,2.9,2.9,0,0,0,1.05.35,9,9,0,0,0,7.42,6l.24-2A7,7,0,0,1,6.47,14.53ZM4.93,13.16A1.2,1.2,0,1,1,6.13,12,1.2,1.2,0,0,1,4.93,13.16ZM21.29,8.47l-1.84.79a7,7,0,0,1-1,7.13A3,3,0,1,0,20,19a3.07,3.07,0,0,0-.21-1.1A9,9,0,0,0,21.29,8.47ZM17,20.2a1.2,1.2,0,0,1,0-2.4,1.2,1.2,0,0,1,0,2.4Z"/></svg>