<?xml version="1.0" encoding="utf-8"?>
<!-- Generator: Adobe Illustrator 22.1.0, SVG Export Plug-In . SVG Version: 6.00 Build 0)  -->
<svg version="1.1" id="Layer_1" xmlns="http://www.w3.org/2000/svg" xmlns:xlink="http://www.w3.org/1999/xlink" x="0px" y="0px"
	 viewBox="0 0 24 24" style="enable-background:new 0 0 24 24;" xml:space="preserve">
<title>iconoteka_pin_b_f</title>
<path d="M7.7,10.3H6.6v1.5h1.1c0.3,0,0.6-0.3,0.5-0.7V11C8.2,10.7,8.1,10.4,7.7,10.3C7.7,10.3,7.7,10.3,7.7,10.3z M2,4v16h20V4H2z
	 M9.8,11.1c0,1.1-0.9,2-2,2H6.6V15H5.1V9h2.7c1.1,0,2,0.9,2,2L9.8,11.1z M12.5,15H11V9h1.5L12.5,15z M18.9,15h-1.5l-1.8-3.4V15h-1.5
	V9h1.5l1.8,3.3V9h1.5V15z"/>
</svg>
