<?xml version="1.0" encoding="utf-8"?>
<!-- Generator: Adobe Illustrator 22.1.0, SVG Export Plug-In . SVG Version: 6.00 Build 0)  -->
<svg version="1.1" id="Layer_1" xmlns="http://www.w3.org/2000/svg" xmlns:xlink="http://www.w3.org/1999/xlink" x="0px" y="0px"
	 viewBox="0 0 24 24" style="enable-background:new 0 0 24 24;" xml:space="preserve">
<title>iconoteka_fiber_dvr_b_s</title>
<path d="M0,4v16h24V4H0z M22,18H2V6h20V18z M12.6,15l2-6H13l-1.1,3.7L10.7,9H9.1l2,6H12.6z M8.6,12.8v-1.6C8.6,10,7.7,9,6.5,9H4v6
	h2.5C7.7,15,8.6,14,8.6,12.8L8.6,12.8z M5.5,13.7v-3.4h0.9c0.4,0.1,0.8,0.5,0.7,0.9v1.6c0,0.4-0.3,0.8-0.7,0.9L5.5,13.7z M17,13h0.6
	l1,2h1.9l-1.3-2.2c0.6-0.3,1-1,1-1.7V11c0-1.1-0.9-2-2-2h-2.7v6H17V13z M17,10.3h1.2c0.3,0,0.6,0.3,0.6,0.7V11
	c0,0.3-0.2,0.6-0.6,0.7c0,0,0,0,0,0H17V10.3z"/>
</svg>
